{
	"asset":{
		"generator":"Khronos glTF Blender I/O v4.4.56",
		"version":"2.0"
	},
	"scene":0,
	"scenes":[
		{
			"name":"Scene",
			"nodes":[
				0
			]
		}
	],
	"nodes":[
		{
			"mesh":0,
			"name":"Card"
		}
	],
	"materials":[
		{
			"doubleSided":true,
			"name":"Card",
			"pbrMetallicRoughness":{
				"baseColorTexture":{
					"index":0
				},
				"metallicRoughnessTexture":{
					"index":1
				}
			}
		}
	],
	"meshes":[
		{
			"name":"Card",
			"primitives":[
				{
					"attributes":{
						"POSITION":0,
						"NORMAL":1,
						"TEXCOORD_0":2
					},
					"indices":3,
					"material":0
				}
			]
		}
	],
	"textures":[
		{
			"sampler":0,
			"source":0
		},
		{
			"sampler":0,
			"source":1
		}
	],
	"images":[
		{
			"mimeType":"image/png",
			"name":"card_diffuse",
			"uri":"card_diffuse.png"
		},
		{
			"mimeType":"image/png",
			"name":"card_roughness_metallic",
			"uri":"card_roughness_metallic.png"
		}
	],
	"accessors":[
		{
			"bufferView":0,
			"componentType":5126,
			"count":306,
			"max":[
				0.05000000074505806,
				0.0020000000949949026,
				0.030000003054738045
			],
			"min":[
				-0.05000000074505806,
				0,
				-0.029999999329447746
			],
			"type":"VEC3"
		},
		{
			"bufferView":1,
			"componentType":5126,
			"count":306,
			"type":"VEC3"
		},
		{
			"bufferView":2,
			"componentType":5126,
			"count":306,
			"type":"VEC2"
		},
		{
			"bufferView":3,
			"componentType":5123,
			"count":828,
			"type":"SCALAR"
		}
	],
	"bufferViews":[
		{
			"buffer":0,
			"byteLength":3672,
			"byteOffset":0,
			"target":34962
		},
		{
			"buffer":0,
			"byteLength":3672,
			"byteOffset":3672,
			"target":34962
		},
		{
			"buffer":0,
			"byteLength":2448,
			"byteOffset":7344,
			"target":34962
		},
		{
			"buffer":0,
			"byteLength":1656,
			"byteOffset":9792,
			"target":34963
		}
	],
	"samplers":[
		{
			"magFilter":9729,
			"minFilter":9987
		}
	],
	"buffers":[
		{
			"byteLength":11448,
			"uri":"card.bin"
		}
	]
}
