{
	"asset":{
		"generator":"Khronos glTF Blender I/O v4.4.56",
		"version":"2.0"
	},
	"scene":0,
	"scenes":[
		{
			"name":"Scene",
			"nodes":[
				0
			]
		}
	],
	"nodes":[
		{
			"mesh":0,
			"name":"Card",
			"rotation":[
				0.7071068286895752,
				0,
				0,
				0.7071068286895752
			],
			"scale":[
				0.0022213393822312355,
				0.0022213393822312355,
				0.0022213393822312355
			],
			"translation":[
				-0.03150001913309097,
				0,
				-0.05249999463558197
			]
		}
	],
	"materials":[
		{
			"doubleSided":true,
			"name":"BaseCardMaterial",
			"pbrMetallicRoughness":{
				"baseColorTexture":{
					"index":0
				},
				"metallicFactor":0.4000000059604645,
				"roughnessFactor":0.4000000059604645
			}
		}
	],
	"meshes":[
		{
			"name":"Card",
			"primitives":[
				{
					"attributes":{
						"POSITION":0,
						"NORMAL":1,
						"TEXCOORD_0":2
					},
					"indices":3,
					"material":0
				}
			]
		}
	],
	"textures":[
		{
			"sampler":0,
			"source":0
		}
	],
	"images":[
		{
			"mimeType":"image/jpeg",
			"name":"card.jpg",
			"uri":"card.jpg"
		}
	],
	"accessors":[
		{
			"bufferView":0,
			"componentType":5126,
			"count":582,
			"max":[
				27.49582290649414,
				47.49775695800781,
				0
			],
			"min":[
				0.0015951247187331319,
				0.0015946560306474566,
				-1.5
			],
			"type":"VEC3"
		},
		{
			"bufferView":1,
			"componentType":5126,
			"count":582,
			"type":"VEC3"
		},
		{
			"bufferView":2,
			"componentType":5126,
			"count":582,
			"type":"VEC2"
		},
		{
			"bufferView":3,
			"componentType":5123,
			"count":864,
			"type":"SCALAR"
		}
	],
	"bufferViews":[
		{
			"buffer":0,
			"byteLength":6984,
			"byteOffset":0,
			"target":34962
		},
		{
			"buffer":0,
			"byteLength":6984,
			"byteOffset":6984,
			"target":34962
		},
		{
			"buffer":0,
			"byteLength":4656,
			"byteOffset":13968,
			"target":34962
		},
		{
			"buffer":0,
			"byteLength":1728,
			"byteOffset":18624,
			"target":34963
		}
	],
	"samplers":[
		{
			"magFilter":9729,
			"minFilter":9987
		}
	],
	"buffers":[
		{
			"byteLength":20352,
			"uri":"card.bin"
		}
	]
}
